<?xml version="1.0" encoding="utf-8"?>
<!-- Generator: Adobe Illustrator 24.0.0, SVG Export Plug-In . SVG Version: 6.00 Build 0)  -->
<svg version="1.1" id="Layer_1" xmlns="http://www.w3.org/2000/svg" xmlns:xlink="http://www.w3.org/1999/xlink" x="0px" y="0px"
	 viewBox="0 0 2000 2000" style="enable-background:new 0 0 2000 2000;" xml:space="preserve">
<style type="text/css">
	.st0{fill:#87FF65;}
	.st1{fill:url(#SVGID_1_);}
	.st2{fill:#3C424A;}
</style>
<g>
	<g>
		<g>
			<g>
				<path class="st0" d="M1459.97,410.4v667.98c0,44.88-27.99,84.98-70.11,100.44L1078.9,1292.8V925.22
					c0-49.97-30.65-94.8-77.22-112.88L646.35,674.37c-51.39-19.96-53.82-89.75-8.17-114.75l20.51-8.35L1316.17,310
					C1386,284.4,1459.97,336.07,1459.97,410.4z"/>
				<path class="st0" d="M1078.9,1292.8v312.52c0,62.77-61.94,106.82-121.22,86.17l-186.11-64.79l-111.13-45.61l-15.1-6.61
					c-10.42-5.51-19.14-13.45-25.51-22.99c-7.62-11.33-11.93-24.91-11.93-39.19c0-29.82,18.81-56.44,46.89-66.39l194.09-68.83
					L1078.9,1292.8z"/>
				<path class="st0" d="M1459.97,410.4v667.98c0,44.88-27.99,84.98-70.11,100.44L1078.9,1292.8V925.22
					c0-49.97-30.65-94.8-77.22-112.88L646.35,674.37c-51.39-19.96-53.82-89.75-8.17-114.75l20.51-8.35L1316.17,310
					C1386,284.4,1459.97,336.07,1459.97,410.4z"/>
				<linearGradient id="SVGID_1_" gradientUnits="userSpaceOnUse" x1="607.8973" y1="1494.7153" x2="1078.8981" y2="1494.7153">
					<stop  offset="0.1622" style="stop-color:#64BD4B;stop-opacity:0"/>
					<stop  offset="1" style="stop-color:#40BD17"/>
				</linearGradient>
				<path class="st1" d="M1078.9,1292.8v312.52c0,62.77-61.94,106.82-121.22,86.17l-186.11-64.79l-111.13-45.61l-15.1-6.61
					c-10.42-5.51-19.14-13.45-25.51-22.99c-7.62-11.33-11.93-24.91-11.93-39.19c0-29.82,18.81-56.44,46.89-66.39l194.09-68.83
					L1078.9,1292.8z"/>
				<path class="st2" d="M1078.9,925.22v367.58l-230.02,84.29l-194.09,68.83c-28.08,9.96-46.89,36.57-46.89,66.39
					c0,14.27,4.31,27.85,11.93,39.19c6.38,9.54,15.1,17.48,25.51,22.99l-10.74-4.68c-57.45-25.05-94.57-81.72-94.57-144.35V696.17
					c0-58.46,35.42-111.09,89.57-133.06l8.58-3.49c-45.65,25-43.22,94.79,8.17,114.75l355.33,137.97
					C1048.25,830.42,1078.9,875.25,1078.9,925.22z"/>
			</g>
		</g>
	</g>
</g>
</svg>
